<?xml version="1.0" encoding="utf-8"?>
<!-- Generator: Adobe Illustrator 22.1.0, SVG Export Plug-In . SVG Version: 6.00 Build 0)  -->
<svg version="1.1" id="Слой_1" xmlns="http://www.w3.org/2000/svg" xmlns:xlink="http://www.w3.org/1999/xlink" x="0px" y="0px"
	 viewBox="0 0 121 121" style="enable-background:new 0 0 121 121;" xml:space="preserve">
<style type="text/css">
	.st0{fill:#FFFFFF;}
	.st1{enable-background:new    ;}
</style>
<title>Монтажная область 1</title>
<path class="st0" d="M60.5,10.5c27.6,0,50,22.4,50,50s-22.4,50-50,50s-50-22.4-50-50S32.9,10.5,60.5,10.5 M60.5,8.5
	c-28.7,0-52,23.3-52,52s23.3,52,52,52s52-23.3,52-52S89.2,8.5,60.5,8.5z"/>
<path class="st0" d="M60.5,20.5c22.1,0,40,17.9,40,40s-17.9,40-40,40s-40-17.9-40-40S38.4,20.5,60.5,20.5 M60.5,18.5
	c-23.2,0-42,18.8-42,42s18.8,42,42,42s42-18.8,42-42S83.7,18.5,60.5,18.5z"/>
<polygon class="st0" points="61.5,0 59.5,0 59.5,29 61.5,29 "/>
<polygon class="st0" points="61.5,92 59.5,92 59.5,121 61.5,121 "/>
<polygon class="st0" points="121,59.5 92,59.5 92,61.5 121,61.5 "/>
<polygon class="st0" points="29,59.5 0,59.5 0,61.5 29,61.5 "/>
<g class="st1">
	<path class="st0" d="M68.7,53.4c0,1.4-0.3,2.9-0.8,4.3c-0.5,1.5-1.2,2.9-2,4.3s-1.7,2.8-2.6,4.1c-1,1.3-1.9,2.5-2.8,3.6l-2.2,1.7
		v0.2l3-0.6h8.1v4.6H51.7v-2.8c0.7-0.7,1.4-1.5,2.3-2.5c0.8-0.9,1.7-1.9,2.5-3c0.9-1,1.7-2.1,2.5-3.3c0.8-1.1,1.5-2.2,2.2-3.4
		c0.6-1.1,1.2-2.2,1.5-3.3s0.6-2.1,0.6-3c0-1.1-0.3-2.1-1-2.8s-1.7-1.1-3.1-1.1c-0.9,0-1.8,0.2-2.8,0.6c-0.9,0.4-1.7,0.9-2.4,1.4
		l-2.2-3.9c1.1-0.9,2.3-1.6,3.7-2.2c1.4-0.5,3-0.8,4.9-0.8c1.2,0,2.3,0.2,3.3,0.5c1,0.3,1.9,0.8,2.6,1.5c0.7,0.6,1.3,1.4,1.7,2.4
		C68.5,51,68.7,52.1,68.7,53.4z"/>
</g>
</svg>
