<?xml version="1.0" encoding="utf-8"?>
<!-- Generator: Adobe Illustrator 22.1.0, SVG Export Plug-In . SVG Version: 6.00 Build 0)  -->
<svg version="1.1" id="Слой_1" xmlns="http://www.w3.org/2000/svg" xmlns:xlink="http://www.w3.org/1999/xlink" x="0px" y="0px"
	 viewBox="0 0 121 121" style="enable-background:new 0 0 121 121;" xml:space="preserve">
<style type="text/css">
	.st0{fill:#FFFFFF;}
	.st1{enable-background:new    ;}
</style>
<title>Монтажная область 1</title>
<path class="st0" d="M60.5,10.5c27.6,0,50,22.4,50,50s-22.4,50-50,50s-50-22.4-50-50S32.9,10.5,60.5,10.5 M60.5,8.5
	c-28.7,0-52,23.3-52,52s23.3,52,52,52s52-23.3,52-52S89.2,8.5,60.5,8.5z"/>
<path class="st0" d="M60.5,20.5c22.1,0,40,17.9,40,40s-17.9,40-40,40s-40-17.9-40-40S38.4,20.5,60.5,20.5 M60.5,18.5
	c-23.2,0-42,18.8-42,42s18.8,42,42,42s42-18.8,42-42S83.7,18.5,60.5,18.5z"/>
<polygon class="st0" points="61.5,0 59.5,0 59.5,29 61.5,29 "/>
<polygon class="st0" points="61.5,92 59.5,92 59.5,121 61.5,121 "/>
<polygon class="st0" points="121,59.5 92,59.5 92,61.5 121,61.5 "/>
<polygon class="st0" points="29,59.5 0,59.5 0,61.5 29,61.5 "/>
<g class="st1">
	<path class="st0" d="M71.7,67.1h-4.6v8.2H62v-8.2H49.3V64l13.3-18.3h4.5v17.1h4.6C71.7,62.8,71.7,67.1,71.7,67.1z M62,56.3l0.4-3.5
		h-0.2l-1.4,3l-4.4,5.7l-2.1,1.6l2.7-0.3h5V56.3z"/>
</g>
</svg>
