<?xml version="1.0" encoding="utf-8"?>
<!-- Generator: Adobe Illustrator 22.1.0, SVG Export Plug-In . SVG Version: 6.00 Build 0)  -->
<svg version="1.1" id="Слой_1" xmlns="http://www.w3.org/2000/svg" xmlns:xlink="http://www.w3.org/1999/xlink" x="0px" y="0px"
	 viewBox="0 0 121 121" style="enable-background:new 0 0 121 121;" xml:space="preserve">
<style type="text/css">
	.st0{fill:#FFFFFF;}
	.st1{enable-background:new    ;}
</style>
<title>Монтажная область 1</title>
<path class="st0" d="M60.5,10.5c27.6,0,50,22.4,50,50s-22.4,50-50,50s-50-22.4-50-50S32.9,10.5,60.5,10.5 M60.5,8.5
	c-28.7,0-52,23.3-52,52s23.3,52,52,52s52-23.3,52-52S89.2,8.5,60.5,8.5z"/>
<path class="st0" d="M60.5,20.5c22.1,0,40,17.9,40,40s-17.9,40-40,40s-40-17.9-40-40S38.4,20.5,60.5,20.5 M60.5,18.5
	c-23.2,0-42,18.8-42,42s18.8,42,42,42s42-18.8,42-42S83.7,18.5,60.5,18.5z"/>
<polygon class="st0" points="61.5,0 59.5,0 59.5,29 61.5,29 "/>
<polygon class="st0" points="61.5,92 59.5,92 59.5,121 61.5,121 "/>
<polygon class="st0" points="121,59.5 92,59.5 92,61.5 121,61.5 "/>
<polygon class="st0" points="29,59.5 0,59.5 0,61.5 29,61.5 "/>
<g class="st1">
	<path class="st0" d="M46,71.2c1.7,0,3.1-0.5,4-1.4c0.9-0.9,1.4-2,1.4-3.4c0-1.6-0.5-2.8-1.4-3.5c-1-0.8-2.5-1.1-4.5-1.1h-3v-2.9
		l5.1-6.9l2.4-1.9l-3.3,0.4h-7.1v-4.6h16v3l-5.9,7.9l-1.8,1.1v0.2l1.8-0.3c1,0.1,1.9,0.3,2.8,0.7c0.9,0.4,1.7,0.9,2.3,1.6
		c0.7,0.7,1.2,1.5,1.6,2.5c0.4,1,0.6,2.2,0.6,3.5c0,1.7-0.3,3.1-0.8,4.3c-0.5,1.2-1.3,2.2-2.3,3c-1,0.8-2.1,1.4-3.4,1.8
		c-1.3,0.4-2.7,0.6-4.2,0.6c-1.2,0-2.5-0.1-3.8-0.3c-1.3-0.2-2.4-0.5-3.2-1l1.5-4.5c0.7,0.4,1.5,0.7,2.4,0.9
		C43.9,71.1,44.9,71.2,46,71.2z"/>
	<path class="st0" d="M61.4,60.5c0-5.2,0.9-9,2.6-11.5c1.8-2.5,4.3-3.8,7.6-3.8c3.5,0,6.1,1.2,7.8,3.7c1.7,2.5,2.5,6.3,2.5,11.5
		c0,5.2-0.9,9-2.7,11.5c-1.8,2.5-4.3,3.8-7.6,3.8c-3.5,0-6.1-1.3-7.7-4C62.2,69.2,61.4,65.4,61.4,60.5z M66.8,60.5
		c0,3.4,0.4,6.1,1.1,7.9c0.7,1.9,2,2.8,3.7,2.8c1.7,0,2.9-0.9,3.6-2.6c0.8-1.7,1.2-4.4,1.2-8.1c0-3.4-0.4-6-1.1-7.9
		c-0.7-1.8-2-2.8-3.7-2.8c-1.7,0-2.9,0.9-3.6,2.6C67.2,54.2,66.8,56.8,66.8,60.5z"/>
</g>
</svg>
