<svg  fill="#fff" id="Слой_1" data-name="Слой 1" xmlns="http://www.w3.org/2000/svg" viewBox="0 0 79 83"><title>Монтажная область 1</title><path d="M11.2,42.6l4.3-2,3,1.2,1.6,4.5a1.4,1.4,0,0,0,1.2.9h5.6a1.26,1.26,0,0,0,1.2-.9l1.6-4.5,3-1.2,4.3,2a1.4,1.4,0,0,0,1.5-.3l3.9-3.9a1.4,1.4,0,0,0,.3-1.5l-2-4.3,1.2-3L46.4,28a1.4,1.4,0,0,0,.9-1.2V21.2a1.26,1.26,0,0,0-.9-1.2l-4.5-1.6-1.2-3,2-4.3a1.4,1.4,0,0,0-.3-1.5L38.5,5.7A1.4,1.4,0,0,0,37,5.4l-4.3,2-3-1.2L28.1,1.7A1.4,1.4,0,0,0,26.9.8H21.3a1.26,1.26,0,0,0-1.2.9L18.5,6.2l-3,1.2-4.3-2a1.4,1.4,0,0,0-1.5.3L5.8,9.8a1.4,1.4,0,0,0-.3,1.5l2,4.3-1.2,3L1.8,20.2A1.08,1.08,0,0,0,1,21.3v5.6a1.26,1.26,0,0,0,.9,1.2l4.5,1.6,1.2,3L5.6,37a1.4,1.4,0,0,0,.3,1.5l3.9,3.9A1.06,1.06,0,0,0,11.2,42.6ZM10.1,32.3,8.4,28.2a1.14,1.14,0,0,0-.8-.7L3.6,26V22.2l4.1-1.5a1.78,1.78,0,0,0,.8-.7l1.7-4.1a1.7,1.7,0,0,0,0-1l-1.9-4L11,8.2l4,1.9a.91.91,0,0,0,1,0l4-1.6a1.14,1.14,0,0,0,.7-.8l1.5-4.1H26l1.5,4.1a1.78,1.78,0,0,0,.7.8l4.1,1.7a1.7,1.7,0,0,0,1,0l4-1.9L40,11l-1.9,4a.91.91,0,0,0,0,1l1.7,4.1a1.14,1.14,0,0,0,.8.7l4.1,1.5V26l-4.1,1.5a1.78,1.78,0,0,0-.8.7L38,32.3a1.7,1.7,0,0,0,0,1l1.9,4L37.2,40l-4-1.9a.91.91,0,0,0-1,0l-4.1,1.7a1.14,1.14,0,0,0-.7.8l-1.4,4H22.2l-1.5-4.1a1.78,1.78,0,0,0-.7-.8L15.9,38a1.7,1.7,0,0,0-1,0l-4,1.9L8.2,37.2l1.9-4A.75.75,0,0,0,10.1,32.3Z"/><path d="M24.1,35.6A11.5,11.5,0,1,0,12.6,24.1,11.38,11.38,0,0,0,24.1,35.6Zm0-20.5a9,9,0,1,1-9,9A9.09,9.09,0,0,1,24.1,15.1Z"/><path d="M48.9,62.8l-1.7,4.1a1.7,1.7,0,0,0,0,1l1.9,4-2.7,2.7-4-1.9a.91.91,0,0,0-1,0l-4.1,1.7a1.14,1.14,0,0,0-.7.8l-1.5,4.1H31.3l-1.5-4.1a1.78,1.78,0,0,0-.7-.8L25,72.7a1.7,1.7,0,0,0-1,0l-4,1.9-2.7-2.7,1.9-4a.91.91,0,0,0,0-1l-1.7-4.1a1.14,1.14,0,0,0-.8-.7l-4.1-1.5V56.8l4.1-1.5a1.78,1.78,0,0,0,.8-.7l1.7-4.1a1.7,1.7,0,0,0,0-1L17,44.7l-2.3,1.1,2,4.3-1.2,3L11,54.7a1.4,1.4,0,0,0-.9,1.2v5.6a1.26,1.26,0,0,0,.9,1.2l4.5,1.6,1.2,3-2,4.3a1.4,1.4,0,0,0,.3,1.5L18.9,77a1.4,1.4,0,0,0,1.5.3l4.3-2,3,1.2L29.3,81a1.4,1.4,0,0,0,1.2.9h5.6a1.26,1.26,0,0,0,1.2-.9l1.6-4.5,3-1.2,4.3,2a1.4,1.4,0,0,0,1.5-.3l3.9-3.9a1.4,1.4,0,0,0,.3-1.5l-2-4.3,1.5-3.5Z"/><path d="M51.5,44.4l-3.9-3.9a1.4,1.4,0,0,0-1.5-.3l-4.8,2.3,1.1,2.3,4-1.9,2.7,2.7-1.9,4a.91.91,0,0,0,0,1l1.5,3.5,2.4-1-1.2-3,2-4.3A1.49,1.49,0,0,0,51.5,44.4Z"/><path d="M33.3,70.2A11.5,11.5,0,1,0,21.8,58.7,11.38,11.38,0,0,0,33.3,70.2Zm0-20.5a9,9,0,1,1-9,9A9,9,0,0,1,33.3,49.7Z"/><path d="M77,24l-4.5-1.6-1.2-3,2-4.3a1.4,1.4,0,0,0-.3-1.5L69.1,9.7a1.4,1.4,0,0,0-1.5-.3l-4.3,2-3-1.2L58.7,5.7a1.4,1.4,0,0,0-1.2-.9H52a1.26,1.26,0,0,0-1.2.9l-1.6,4.5-3.5,1.5,1,2.4,4.1-1.7a1.14,1.14,0,0,0,.7-.8L53,7.5h3.8l1.5,4.1a1.78,1.78,0,0,0,.7.8L63,14a1.7,1.7,0,0,0,1,0l4-1.9,2.7,2.7-1.9,4a.91.91,0,0,0,0,1l1.7,4.1a1.14,1.14,0,0,0,.8.7l4.1,1.5v3.8l-4.1,1.5a1.78,1.78,0,0,0-.8.7l-1.7,4.1a1.7,1.7,0,0,0,0,1l1.9,4-3.3,3.3,1.8,1.8,3.9-3.9a1.4,1.4,0,0,0,.3-1.5l-2-4.3,1.2-3L77,32a1.4,1.4,0,0,0,.9-1.2V25.2A1.2,1.2,0,0,0,77,24Z"/><path d="M54.8,36.9a8.81,8.81,0,0,1-8.3-5.6l-2.4,1a11.53,11.53,0,1,0,6.4-15,6.11,6.11,0,0,0-1.4.7l1.3,2.2a9,9,0,1,1,9,15.6A10.72,10.72,0,0,1,54.8,36.9Z"/><path d="M69.4,49.7H65.1V44.6a3.8,3.8,0,1,0-7.6,0v11l-.9-.9a4,4,0,1,0-5.7,5.7l6.5,6.5v2H56.1a1.32,1.32,0,0,0-1.3,1.3V81.7h2.6V71.5H72.8V81.8h2.6V70.2a1.32,1.32,0,0,0-1.3-1.3H72.8v-2l2.6-2.6a8.55,8.55,0,0,0-6-14.6Zm4.2,12.8-3,3a1.49,1.49,0,0,0-.4.9V69H59.9V66.4a1.09,1.09,0,0,0-.4-.9l-6.9-6.9a1.41,1.41,0,0,1,2-2l3,3a1.27,1.27,0,0,0,1.8,0,1.49,1.49,0,0,0,.4-.9V44.6a1.3,1.3,0,1,1,2.6,0V51a1.32,1.32,0,0,0,1.3,1.3h5.6a6,6,0,0,1,6,6A5.89,5.89,0,0,1,73.6,62.5Z"/><path d="M67.6,74.1h2.6v2.6H67.6Z"/></svg>