<svg  fill="#fff" id="Слой_1" data-name="Слой 1" xmlns="http://www.w3.org/2000/svg" viewBox="0 0 84 84"><title>Монтажная область 1</title><path d="M83,43.3V32.7a6.54,6.54,0,0,0-4.7-6.3l-8.5-2.6v-2a9.24,9.24,0,0,0,4-7.6v-4a9.3,9.3,0,0,0-18.6,0v4a9.38,9.38,0,0,0,4,7.6v2l-7.5,2.3a15.27,15.27,0,0,0-10.2-3.9,14.94,14.94,0,0,0-9.9,3.7l-6.7-2v-2a9.24,9.24,0,0,0,4-7.6v-4a9.3,9.3,0,1,0-18.6,0v4a9.38,9.38,0,0,0,4,7.6v2L5.8,26.5A6.31,6.31,0,0,0,1,32.7V43.3H3.6V32.7a3.87,3.87,0,0,1,2.8-3.8l8.5-2.6a5.85,5.85,0,0,0,4.5,2.4,5.68,5.68,0,0,0,4.5-2.4l5.4,1.6a15.13,15.13,0,0,0-3.2,7.7,9.22,9.22,0,0,0-6.7-2.9A9.35,9.35,0,0,0,10.1,42v4a9.38,9.38,0,0,0,4,7.6v2L5.6,58.2A6.48,6.48,0,0,0,1,64.5V76.4H16.9a1.32,1.32,0,0,1,1.3,1.3V83H65.8V77.7a1.32,1.32,0,0,1,1.3-1.3H83V64.5a6.54,6.54,0,0,0-4.7-6.3l-8.5-2.6v-2a9.24,9.24,0,0,0,4-7.6V42a9.26,9.26,0,0,0-15.9-6.5V34.2A7.06,7.06,0,0,0,54.3,28L60,26.3a5.85,5.85,0,0,0,4.5,2.4A5.68,5.68,0,0,0,69,26.3l8.5,2.6a3.87,3.87,0,0,1,2.8,3.8V43.3ZM19.5,3.6a6.66,6.66,0,0,1,6.6,6.6H20a3.34,3.34,0,0,1-2.3-.9l-.9-.9-.9.9a3.17,3.17,0,0,1-2.3.9h-.8A6.81,6.81,0,0,1,19.5,3.6ZM12.9,14.2V12.9h.8a5.71,5.71,0,0,0,3.2-.9,5.71,5.71,0,0,0,3.2.9h6.1v1.3a6.65,6.65,0,0,1-13.3,0Zm6.6,11.9a3.28,3.28,0,0,1-2.6-1.7V23.1a10.87,10.87,0,0,0,2.6.4,7.46,7.46,0,0,0,2.6-.4v1.3A3.28,3.28,0,0,1,19.5,26.1ZM55.9,49.3a9.16,9.16,0,0,0,3.3,4.2v2l-8.5,2.6a6.89,6.89,0,0,0-.8.3l-1.2-.3V55.5a10.58,10.58,0,0,0,3.2-4.3A6.52,6.52,0,0,0,55.9,49.3ZM42,57.9a11,11,0,0,0,4-.8v1.4l-4,3-4-3V57.1A11,11,0,0,0,42,57.9Zm-5.6,2.7L39.6,63l-3.3,2-.8-4.2Zm4.1,10.5h2.9l1,9.3h-5Zm3.2-2.6H40.3l-.8-2.3L42,64.7l2.5,1.5Zm.7-5.5,3.2-2.4.9.2L47.7,65Zm9.8-15.7a3.86,3.86,0,0,1-1.7,1.1c0-.4.1-.7.1-1.1V41a3.89,3.89,0,0,1,2.6,3.3A3.69,3.69,0,0,1,54.2,47.3Zm-4.3,0a7.9,7.9,0,0,1-15.8,0V40.7h4.5a16.68,16.68,0,0,0,8.2-2.1l1,2.1h2.1ZM31.5,48.4a4.52,4.52,0,0,1-1.7-1.1,3.79,3.79,0,0,1-1-3.1,4,4,0,0,1,2.6-3.3v6.3A4.48,4.48,0,0,0,31.5,48.4Zm.7,2.8a10.58,10.58,0,0,0,3.2,4.3v2.6l-1.2.3c-.3-.1-.5-.2-.8-.3l-8.5-2.6v-2a9.16,9.16,0,0,0,3.3-4.2A6.06,6.06,0,0,0,32.2,51.2ZM19.5,35.4A6.66,6.66,0,0,1,26.1,42h-.8a3.34,3.34,0,0,1-2.3-.9l-.9-.9-.9.9A3.1,3.1,0,0,1,19,42H12.9A6.66,6.66,0,0,1,19.5,35.4ZM12.9,46V44.7H19a5.71,5.71,0,0,0,3.2-.9,5.71,5.71,0,0,0,3.2.9h.8V46a6.66,6.66,0,0,1-6.6,6.6A6.75,6.75,0,0,1,12.9,46Zm6.6,9.2a7.46,7.46,0,0,0,2.6-.4v1.3a3.28,3.28,0,0,1-2.6,1.7,3.28,3.28,0,0,1-2.6-1.7V54.8A7.46,7.46,0,0,0,19.5,55.2ZM16.9,73.7H11.6V64.4H8.9v9.3H3.6V64.4a3.87,3.87,0,0,1,2.8-3.8L14.9,58a5.85,5.85,0,0,0,4.5,2.4A5.68,5.68,0,0,0,23.9,58l5,1.5-3.7.9a9.29,9.29,0,0,0-7.2,9V71h2.6V69.4A6.53,6.53,0,0,1,25.7,63l6.9-1.6,1.6,7.8L37,67.5l.8,2.3L36.6,80.2H29.8V69.8H27.2V80.4H20.6V77.8A3.68,3.68,0,0,0,16.9,73.7Zm60.6-13a3.87,3.87,0,0,1,2.8,3.8v9.3H75V64.5H72.4v9.3H67.1a4,4,0,0,0-4,4v2.6H56.5V69.8H53.9V80.4H47.1L46,69.9l.8-2.3,2.8,1.7,1.6-7.8L58,63a6.53,6.53,0,0,1,5.1,6.4V71h2.6V69.4a9.29,9.29,0,0,0-7.2-9l-3.7-.9,5-1.5a5.85,5.85,0,0,0,4.5,2.4A5.68,5.68,0,0,0,68.8,58ZM67.1,56.2a2.84,2.84,0,0,1-5.2,0V54.9a8.65,8.65,0,0,0,5.2,0Zm-2.6-3.6A6.66,6.66,0,0,1,57.9,46V44.7h.8a5.71,5.71,0,0,0,3.2-.9,5.71,5.71,0,0,0,3.2.9h6.1V46A6.81,6.81,0,0,1,64.5,52.6Zm0-17.2A6.66,6.66,0,0,1,71.1,42H65a3.34,3.34,0,0,1-2.3-.9l-.9-.9-.9.9a3.17,3.17,0,0,1-2.3.9h-.8A6.75,6.75,0,0,1,64.5,35.4Zm-9.3,4.1A6.71,6.71,0,0,0,51,38H49.4l-1.6-3.3-1.2.8a14.19,14.19,0,0,1-8,2.4H33a6.85,6.85,0,0,0-4.2,1.4v-2a12.73,12.73,0,0,1,21.7-9l1.4,1.4.3.1A4.51,4.51,0,0,1,55.3,34v5.5ZM64.5,3.6a6.66,6.66,0,0,1,6.6,6.6h-.8A3.34,3.34,0,0,1,68,9.3l-.9-.9-.9.9a3.17,3.17,0,0,1-2.3.9H57.8A6.75,6.75,0,0,1,64.5,3.6ZM57.9,14.2V12.9H64a5.71,5.71,0,0,0,3.2-.9,5.71,5.71,0,0,0,3.2.9h.8v1.3a6.66,6.66,0,0,1-6.6,6.6A6.55,6.55,0,0,1,57.9,14.2Zm6.6,11.9a3.28,3.28,0,0,1-2.6-1.7V23.1a8.65,8.65,0,0,0,5.2,0v1.3A3.28,3.28,0,0,1,64.5,26.1Z"/><path d="M31.4,1H34V3.6H31.4Z"/><path d="M31.4,6.3H34V20.8H31.4Z"/><path d="M49.9,1h2.6V3.6H49.9Z"/><path d="M49.9,6.3h2.6V20.8H49.9Z"/><path d="M36.7,6.3h2.6v9.3H36.7Z"/><path d="M36.7,18.2h2.6v2.6H36.7Z"/><path d="M44.6,6.3h2.6v9.3H44.6Z"/><path d="M44.6,18.2h2.6v2.6H44.6Z"/></svg>