<svg  fill="#fff" id="Слой_1" data-name="Слой 1" xmlns="http://www.w3.org/2000/svg" viewBox="0 0 79 85"><title>Монтажная область 1</title><path d="M13.4,35.8V50.4h2.7v-14A17.75,17.75,0,1,0,1.2,16.2,17.88,17.88,0,0,0,13.4,35.8ZM34,18.8a15.21,15.21,0,0,1-3.5,9.7L20.3,18.2V3.7A15.19,15.19,0,0,1,34,18.8ZM9.2,7.1a15.37,15.37,0,0,1,8.3-3.4V15.4Zm-1.9,2L17.8,19.6l.1.1L28.6,30.3a15,15,0,0,1-12.4,3.3V27H13.5v5.8A15.06,15.06,0,0,1,4.9,13.3,11.77,11.77,0,0,1,7.3,9.1Z"/><path d="M6.5,36.6V62.7A5.55,5.55,0,0,0,12,68.2H31.2l-2.3,6.9H21.6a4.1,4.1,0,0,0,0,8.2H62.8a4.1,4.1,0,0,0,0-8.2H55.5l-2.3-6.9H72.4a5.55,5.55,0,0,0,5.5-5.5V16a5.55,5.55,0,0,0-5.5-5.5H38.1v2.7H72.5a2.69,2.69,0,0,1,2.7,2.7V54.4H9.2V36.6ZM64.3,79.3a1.37,1.37,0,0,1-1.4,1.4H21.6a1.4,1.4,0,1,1,0-2.8H62.8A1.45,1.45,0,0,1,64.3,79.3ZM52.7,75.1H31.8l2.3-6.9H50.5ZM75.3,57.3v5.5a2.69,2.69,0,0,1-2.7,2.7H12a2.69,2.69,0,0,1-2.7-2.7V57.3Z"/><path d="M71.1,18.8a1.37,1.37,0,0,0-1.4-1.4H42.3a1.37,1.37,0,0,0-1.4,1.4V27a1.37,1.37,0,0,0,1.4,1.4H69.8A1.37,1.37,0,0,0,71.2,27V18.8Zm-2.7,6.8H43.6V20.1H68.3v5.5Z"/><path d="M45,31.1H71.1v2.7H45Z"/><path d="M56,36.6H71.1v2.7H56Z"/><path d="M50.5,42.1H71.1v2.7H50.5Z"/><path d="M56,47.6H71.1v2.7H56Z"/><path d="M40.9,60h2.7v2.7H40.9Z"/><path d="M21.6,44.9v2.7H18.9v2.7H43.6V47.6H40.9V38H38.2v9.6H35.5V43.5H32.8v4.1H30.1V40.7H27.4v6.9H24.7V44.9Z"/></svg>